<mxfile host="Electron" modified="2023-12-04T17:09:44.300Z" agent="Mozilla/5.0 (Windows NT 10.0; Win64; x64) AppleWebKit/537.36 (KHTML, like Gecko) draw.io/22.1.2 Chrome/114.0.5735.289 Electron/25.9.4 Safari/537.36" etag="ILHzRi3Y-tMKpQ1gYjBP" version="22.1.2" type="device">
  <diagram name="Page-1" id="7XT3XKTKxal2Qqp5v0FH">
    <mxGraphModel dx="1235" dy="731" grid="1" gridSize="10" guides="1" tooltips="1" connect="1" arrows="1" fold="1" page="1" pageScale="1" pageWidth="850" pageHeight="1100" math="0" shadow="0">
      <root>
        <mxCell id="0" />
        <mxCell id="1" parent="0" />
        <mxCell id="c59BaYO8aNtHzQ45Rcc6-74" style="edgeStyle=orthogonalEdgeStyle;rounded=0;orthogonalLoop=1;jettySize=auto;html=1;exitX=0;exitY=0.3333333333333333;exitDx=0;exitDy=0;exitPerimeter=0;entryX=1;entryY=0.5;entryDx=0;entryDy=0;" parent="1" source="c59BaYO8aNtHzQ45Rcc6-6" target="pS7hGgT0cdNlaM9hnxwt-1" edge="1">
          <mxGeometry relative="1" as="geometry">
            <mxPoint x="667.5" y="410" as="targetPoint" />
          </mxGeometry>
        </mxCell>
        <mxCell id="c59BaYO8aNtHzQ45Rcc6-115" style="edgeStyle=orthogonalEdgeStyle;rounded=0;orthogonalLoop=1;jettySize=auto;html=1;exitX=0;exitY=1;exitDx=0;exitDy=0;exitPerimeter=0;entryX=1;entryY=0.5;entryDx=0;entryDy=0;" parent="1" source="c59BaYO8aNtHzQ45Rcc6-6" target="c59BaYO8aNtHzQ45Rcc6-94" edge="1">
          <mxGeometry relative="1" as="geometry" />
        </mxCell>
        <mxCell id="c59BaYO8aNtHzQ45Rcc6-121" style="edgeStyle=orthogonalEdgeStyle;rounded=0;orthogonalLoop=1;jettySize=auto;html=1;exitX=0;exitY=1;exitDx=0;exitDy=0;exitPerimeter=0;entryX=1;entryY=0.5;entryDx=0;entryDy=0;" parent="1" source="c59BaYO8aNtHzQ45Rcc6-6" target="c59BaYO8aNtHzQ45Rcc6-99" edge="1">
          <mxGeometry relative="1" as="geometry" />
        </mxCell>
        <mxCell id="FYBIkS828fc85QLFNB7--7" style="edgeStyle=orthogonalEdgeStyle;rounded=0;orthogonalLoop=1;jettySize=auto;html=1;exitX=0;exitY=0.3333333333333333;exitDx=0;exitDy=0;exitPerimeter=0;entryX=1;entryY=0.5;entryDx=0;entryDy=0;" edge="1" parent="1" source="c59BaYO8aNtHzQ45Rcc6-6" target="pS7hGgT0cdNlaM9hnxwt-4">
          <mxGeometry relative="1" as="geometry" />
        </mxCell>
        <mxCell id="c59BaYO8aNtHzQ45Rcc6-6" value="Admin" style="shape=umlActor;verticalLabelPosition=bottom;verticalAlign=top;html=1;outlineConnect=0;strokeColor=#FFFFFF;" parent="1" vertex="1">
          <mxGeometry x="730" y="350" width="40" height="60" as="geometry" />
        </mxCell>
        <mxCell id="c59BaYO8aNtHzQ45Rcc6-117" style="edgeStyle=orthogonalEdgeStyle;rounded=0;orthogonalLoop=1;jettySize=auto;html=1;exitX=0;exitY=1;exitDx=0;exitDy=0;exitPerimeter=0;entryX=0.835;entryY=1.035;entryDx=0;entryDy=0;entryPerimeter=0;" parent="1" source="c59BaYO8aNtHzQ45Rcc6-16" target="c59BaYO8aNtHzQ45Rcc6-75" edge="1">
          <mxGeometry relative="1" as="geometry" />
        </mxCell>
        <mxCell id="c59BaYO8aNtHzQ45Rcc6-120" style="edgeStyle=orthogonalEdgeStyle;rounded=0;orthogonalLoop=1;jettySize=auto;html=1;exitX=0;exitY=0.3333333333333333;exitDx=0;exitDy=0;exitPerimeter=0;entryX=0.5;entryY=1;entryDx=0;entryDy=0;" parent="1" source="c59BaYO8aNtHzQ45Rcc6-16" target="c59BaYO8aNtHzQ45Rcc6-90" edge="1">
          <mxGeometry relative="1" as="geometry" />
        </mxCell>
        <mxCell id="FYBIkS828fc85QLFNB7--4" style="edgeStyle=orthogonalEdgeStyle;rounded=0;orthogonalLoop=1;jettySize=auto;html=1;exitX=0;exitY=0.3333333333333333;exitDx=0;exitDy=0;exitPerimeter=0;entryX=1;entryY=0.5;entryDx=0;entryDy=0;" edge="1" parent="1" source="c59BaYO8aNtHzQ45Rcc6-16" target="FYBIkS828fc85QLFNB7--1">
          <mxGeometry relative="1" as="geometry" />
        </mxCell>
        <mxCell id="FYBIkS828fc85QLFNB7--5" style="edgeStyle=orthogonalEdgeStyle;rounded=0;orthogonalLoop=1;jettySize=auto;html=1;exitX=0;exitY=0.3333333333333333;exitDx=0;exitDy=0;exitPerimeter=0;entryX=1;entryY=0.5;entryDx=0;entryDy=0;" edge="1" parent="1" source="c59BaYO8aNtHzQ45Rcc6-16" target="FYBIkS828fc85QLFNB7--2">
          <mxGeometry relative="1" as="geometry" />
        </mxCell>
        <mxCell id="FYBIkS828fc85QLFNB7--6" style="edgeStyle=orthogonalEdgeStyle;rounded=0;orthogonalLoop=1;jettySize=auto;html=1;exitX=0;exitY=0.3333333333333333;exitDx=0;exitDy=0;exitPerimeter=0;entryX=1;entryY=0.5;entryDx=0;entryDy=0;" edge="1" parent="1" source="c59BaYO8aNtHzQ45Rcc6-16" target="FYBIkS828fc85QLFNB7--3">
          <mxGeometry relative="1" as="geometry" />
        </mxCell>
        <mxCell id="c59BaYO8aNtHzQ45Rcc6-16" value="Editor" style="shape=umlActor;verticalLabelPosition=bottom;verticalAlign=top;html=1;outlineConnect=0;" parent="1" vertex="1">
          <mxGeometry x="735" y="545" width="30" height="60" as="geometry" />
        </mxCell>
        <mxCell id="c59BaYO8aNtHzQ45Rcc6-134" style="edgeStyle=orthogonalEdgeStyle;rounded=0;orthogonalLoop=1;jettySize=auto;html=1;exitX=1;exitY=0.3333333333333333;exitDx=0;exitDy=0;exitPerimeter=0;entryX=0;entryY=0.5;entryDx=0;entryDy=0;" parent="1" source="c59BaYO8aNtHzQ45Rcc6-19" target="c59BaYO8aNtHzQ45Rcc6-131" edge="1">
          <mxGeometry relative="1" as="geometry">
            <Array as="points">
              <mxPoint x="175" y="370" />
              <mxPoint x="175" y="325" />
            </Array>
          </mxGeometry>
        </mxCell>
        <mxCell id="c59BaYO8aNtHzQ45Rcc6-135" style="edgeStyle=orthogonalEdgeStyle;rounded=0;orthogonalLoop=1;jettySize=auto;html=1;exitX=1;exitY=1;exitDx=0;exitDy=0;exitPerimeter=0;entryX=0;entryY=0;entryDx=0;entryDy=0;" parent="1" source="c59BaYO8aNtHzQ45Rcc6-19" target="c59BaYO8aNtHzQ45Rcc6-99" edge="1">
          <mxGeometry relative="1" as="geometry" />
        </mxCell>
        <mxCell id="c59BaYO8aNtHzQ45Rcc6-136" style="edgeStyle=orthogonalEdgeStyle;rounded=0;orthogonalLoop=1;jettySize=auto;html=1;exitX=1;exitY=1;exitDx=0;exitDy=0;exitPerimeter=0;entryX=0;entryY=0.5;entryDx=0;entryDy=0;" parent="1" source="c59BaYO8aNtHzQ45Rcc6-19" target="c59BaYO8aNtHzQ45Rcc6-90" edge="1">
          <mxGeometry relative="1" as="geometry" />
        </mxCell>
        <mxCell id="c59BaYO8aNtHzQ45Rcc6-147" style="edgeStyle=orthogonalEdgeStyle;rounded=0;orthogonalLoop=1;jettySize=auto;html=1;exitX=1;exitY=0.3333333333333333;exitDx=0;exitDy=0;exitPerimeter=0;entryX=0;entryY=0.5;entryDx=0;entryDy=0;" parent="1" source="c59BaYO8aNtHzQ45Rcc6-19" target="c59BaYO8aNtHzQ45Rcc6-139" edge="1">
          <mxGeometry relative="1" as="geometry" />
        </mxCell>
        <mxCell id="c59BaYO8aNtHzQ45Rcc6-19" value="Viewers" style="shape=umlActor;verticalLabelPosition=bottom;verticalAlign=top;html=1;outlineConnect=0;" parent="1" vertex="1">
          <mxGeometry x="110" y="350" width="30" height="60" as="geometry" />
        </mxCell>
        <mxCell id="c59BaYO8aNtHzQ45Rcc6-23" value="Not Registered" style="shape=umlActor;verticalLabelPosition=bottom;verticalAlign=top;html=1;outlineConnect=0;" parent="1" vertex="1">
          <mxGeometry x="110" y="740" width="30" height="60" as="geometry" />
        </mxCell>
        <mxCell id="c59BaYO8aNtHzQ45Rcc6-52" value="&lt;font style=&quot;font-size: 7px;&quot;&gt;extend&lt;/font&gt;" style="endArrow=open;endSize=12;dashed=1;html=1;rounded=0;entryX=1;entryY=1;entryDx=0;entryDy=0;exitX=0.5;exitY=0;exitDx=0;exitDy=0;" parent="1" source="c59BaYO8aNtHzQ45Rcc6-103" target="c59BaYO8aNtHzQ45Rcc6-94" edge="1">
          <mxGeometry width="160" relative="1" as="geometry">
            <mxPoint x="330" y="245" as="sourcePoint" />
            <mxPoint x="278.81280853966496" y="274.59537469401005" as="targetPoint" />
          </mxGeometry>
        </mxCell>
        <mxCell id="c59BaYO8aNtHzQ45Rcc6-54" value="&lt;font style=&quot;font-size: 7px;&quot;&gt;extend&lt;/font&gt;" style="endArrow=open;endSize=12;dashed=1;html=1;rounded=0;entryX=0.5;entryY=1;entryDx=0;entryDy=0;exitX=0.5;exitY=0;exitDx=0;exitDy=0;" parent="1" source="c59BaYO8aNtHzQ45Rcc6-105" target="c59BaYO8aNtHzQ45Rcc6-94" edge="1">
          <mxGeometry width="160" relative="1" as="geometry">
            <mxPoint x="330" y="280" as="sourcePoint" />
            <mxPoint x="287.0400000000002" y="291.96000000000004" as="targetPoint" />
          </mxGeometry>
        </mxCell>
        <mxCell id="c59BaYO8aNtHzQ45Rcc6-55" value="&lt;font style=&quot;font-size: 7px;&quot;&gt;include&lt;/font&gt;" style="endArrow=open;endSize=12;dashed=1;html=1;rounded=0;entryX=0.5;entryY=1;entryDx=0;entryDy=0;exitX=0.425;exitY=-0.052;exitDx=0;exitDy=0;exitPerimeter=0;" parent="1" source="c59BaYO8aNtHzQ45Rcc6-99" target="c59BaYO8aNtHzQ45Rcc6-102" edge="1">
          <mxGeometry width="160" relative="1" as="geometry">
            <mxPoint x="434.0999999999999" y="320" as="sourcePoint" />
            <mxPoint x="438.49" y="267.76000000000005" as="targetPoint" />
          </mxGeometry>
        </mxCell>
        <mxCell id="c59BaYO8aNtHzQ45Rcc6-58" value="&lt;font style=&quot;font-size: 7px;&quot;&gt;extend&lt;/font&gt;" style="endArrow=open;endSize=12;dashed=1;html=1;rounded=0;entryX=0.753;entryY=0.06;entryDx=0;entryDy=0;exitX=0.218;exitY=0.994;exitDx=0;exitDy=0;exitPerimeter=0;entryPerimeter=0;" parent="1" source="c59BaYO8aNtHzQ45Rcc6-101" target="c59BaYO8aNtHzQ45Rcc6-99" edge="1">
          <mxGeometry x="-0.0045" width="160" relative="1" as="geometry">
            <mxPoint x="486.70000000000005" y="306.65" as="sourcePoint" />
            <mxPoint x="460.9799999999998" y="332.45000000000005" as="targetPoint" />
            <mxPoint as="offset" />
          </mxGeometry>
        </mxCell>
        <mxCell id="c59BaYO8aNtHzQ45Rcc6-63" value="&lt;font style=&quot;font-size: 7px;&quot;&gt;extend&lt;/font&gt;" style="endArrow=open;endSize=12;dashed=1;html=1;rounded=0;entryX=0;entryY=1;entryDx=0;entryDy=0;exitX=0.5;exitY=0;exitDx=0;exitDy=0;" parent="1" source="c59BaYO8aNtHzQ45Rcc6-104" target="c59BaYO8aNtHzQ45Rcc6-94" edge="1">
          <mxGeometry width="160" relative="1" as="geometry">
            <mxPoint x="290" y="335" as="sourcePoint" />
            <mxPoint x="256.6400000000001" y="301.35000000000014" as="targetPoint" />
          </mxGeometry>
        </mxCell>
        <mxCell id="c59BaYO8aNtHzQ45Rcc6-66" value="&lt;font style=&quot;font-size: 6px;&quot;&gt;Press-Agency-System&lt;/font&gt;" style="shape=umlFrame;whiteSpace=wrap;html=1;pointerEvents=0;" parent="1" vertex="1">
          <mxGeometry x="170" y="190" width="550" height="610" as="geometry" />
        </mxCell>
        <mxCell id="c59BaYO8aNtHzQ45Rcc6-75" value="show profile info" style="ellipse;whiteSpace=wrap;html=1;" parent="1" vertex="1">
          <mxGeometry x="395" y="570" width="70" height="40" as="geometry" />
        </mxCell>
        <mxCell id="c59BaYO8aNtHzQ45Rcc6-82" value="request new post" style="ellipse;whiteSpace=wrap;html=1;" parent="1" vertex="1">
          <mxGeometry x="560" y="410" width="100" height="50" as="geometry" />
        </mxCell>
        <mxCell id="c59BaYO8aNtHzQ45Rcc6-87" value="&lt;font style=&quot;font-size: 7px;&quot;&gt;Accept or Refuse posts&lt;/font&gt;" style="html=1;verticalAlign=bottom;endArrow=block;curved=0;rounded=0;exitX=0;exitY=1;exitDx=0;exitDy=0;exitPerimeter=0;entryX=0.5;entryY=0;entryDx=0;entryDy=0;align=center;" parent="1" source="c59BaYO8aNtHzQ45Rcc6-6" target="c59BaYO8aNtHzQ45Rcc6-82" edge="1">
          <mxGeometry width="80" relative="1" as="geometry">
            <mxPoint x="390" y="520" as="sourcePoint" />
            <mxPoint x="470" y="520" as="targetPoint" />
          </mxGeometry>
        </mxCell>
        <mxCell id="c59BaYO8aNtHzQ45Rcc6-90" value="edit profile" style="ellipse;whiteSpace=wrap;html=1;" parent="1" vertex="1">
          <mxGeometry x="220" y="460" width="71.25" height="40" as="geometry" />
        </mxCell>
        <mxCell id="c59BaYO8aNtHzQ45Rcc6-94" value="&lt;font style=&quot;font-size: 9px;&quot;&gt;view news&lt;/font&gt;" style="ellipse;whiteSpace=wrap;html=1;" parent="1" vertex="1">
          <mxGeometry x="383.37" y="620" width="86.75" height="60" as="geometry" />
        </mxCell>
        <mxCell id="c59BaYO8aNtHzQ45Rcc6-99" value="login" style="ellipse;whiteSpace=wrap;html=1;" parent="1" vertex="1">
          <mxGeometry x="383.37" y="475" width="75.37" height="40" as="geometry" />
        </mxCell>
        <mxCell id="c59BaYO8aNtHzQ45Rcc6-101" value="&lt;font style=&quot;font-size: 7px;&quot;&gt;show error message&lt;/font&gt;" style="ellipse;whiteSpace=wrap;html=1;" parent="1" vertex="1">
          <mxGeometry x="462.37" y="430" width="55" height="30" as="geometry" />
        </mxCell>
        <mxCell id="c59BaYO8aNtHzQ45Rcc6-102" value="&lt;font style=&quot;font-size: 7px;&quot;&gt;check accaunt&lt;/font&gt;" style="ellipse;whiteSpace=wrap;html=1;" parent="1" vertex="1">
          <mxGeometry x="399.87" y="400" width="55" height="30" as="geometry" />
        </mxCell>
        <mxCell id="c59BaYO8aNtHzQ45Rcc6-103" value="&lt;span style=&quot;font-size: 7px;&quot;&gt;comment&lt;/span&gt;" style="ellipse;whiteSpace=wrap;html=1;" parent="1" vertex="1">
          <mxGeometry x="462.37" y="750" width="55" height="30" as="geometry" />
        </mxCell>
        <mxCell id="c59BaYO8aNtHzQ45Rcc6-104" value="&lt;font style=&quot;font-size: 7px;&quot;&gt;save post&lt;/font&gt;" style="ellipse;whiteSpace=wrap;html=1;" parent="1" vertex="1">
          <mxGeometry x="328.37" y="750" width="55" height="30" as="geometry" />
        </mxCell>
        <mxCell id="c59BaYO8aNtHzQ45Rcc6-105" value="&lt;font style=&quot;font-size: 7px;&quot;&gt;like post&lt;/font&gt;" style="ellipse;whiteSpace=wrap;html=1;" parent="1" vertex="1">
          <mxGeometry x="395" y="750" width="55" height="30" as="geometry" />
        </mxCell>
        <mxCell id="c59BaYO8aNtHzQ45Rcc6-111" value="can&#39;t (like, comment, save) news" style="html=1;verticalAlign=bottom;endArrow=block;curved=0;rounded=0;entryX=0.049;entryY=0.847;entryDx=0;entryDy=0;entryPerimeter=0;exitX=1;exitY=1;exitDx=0;exitDy=0;exitPerimeter=0;" parent="1" source="c59BaYO8aNtHzQ45Rcc6-23" target="c59BaYO8aNtHzQ45Rcc6-94" edge="1">
          <mxGeometry width="80" relative="1" as="geometry">
            <mxPoint x="230" y="630" as="sourcePoint" />
            <mxPoint x="320" y="630" as="targetPoint" />
          </mxGeometry>
        </mxCell>
        <mxCell id="c59BaYO8aNtHzQ45Rcc6-114" style="edgeStyle=orthogonalEdgeStyle;rounded=0;orthogonalLoop=1;jettySize=auto;html=1;exitX=0;exitY=1;exitDx=0;exitDy=0;exitPerimeter=0;entryX=0.999;entryY=0.667;entryDx=0;entryDy=0;entryPerimeter=0;" parent="1" source="c59BaYO8aNtHzQ45Rcc6-16" target="c59BaYO8aNtHzQ45Rcc6-94" edge="1">
          <mxGeometry relative="1" as="geometry" />
        </mxCell>
        <mxCell id="c59BaYO8aNtHzQ45Rcc6-116" style="edgeStyle=orthogonalEdgeStyle;rounded=0;orthogonalLoop=1;jettySize=auto;html=1;exitX=1;exitY=1;exitDx=0;exitDy=0;exitPerimeter=0;entryX=-0.008;entryY=0.703;entryDx=0;entryDy=0;entryPerimeter=0;" parent="1" source="c59BaYO8aNtHzQ45Rcc6-19" target="c59BaYO8aNtHzQ45Rcc6-94" edge="1">
          <mxGeometry relative="1" as="geometry" />
        </mxCell>
        <mxCell id="c59BaYO8aNtHzQ45Rcc6-118" style="edgeStyle=orthogonalEdgeStyle;rounded=0;orthogonalLoop=1;jettySize=auto;html=1;exitX=0;exitY=1;exitDx=0;exitDy=0;exitPerimeter=0;entryX=1.004;entryY=0.246;entryDx=0;entryDy=0;entryPerimeter=0;" parent="1" source="c59BaYO8aNtHzQ45Rcc6-6" target="c59BaYO8aNtHzQ45Rcc6-75" edge="1">
          <mxGeometry relative="1" as="geometry" />
        </mxCell>
        <mxCell id="c59BaYO8aNtHzQ45Rcc6-119" style="edgeStyle=orthogonalEdgeStyle;rounded=0;orthogonalLoop=1;jettySize=auto;html=1;exitX=1;exitY=1;exitDx=0;exitDy=0;exitPerimeter=0;entryX=0.014;entryY=0.713;entryDx=0;entryDy=0;entryPerimeter=0;" parent="1" source="c59BaYO8aNtHzQ45Rcc6-19" target="c59BaYO8aNtHzQ45Rcc6-75" edge="1">
          <mxGeometry relative="1" as="geometry" />
        </mxCell>
        <mxCell id="c59BaYO8aNtHzQ45Rcc6-127" value="&lt;font style=&quot;font-size: 7px;&quot;&gt;Answer viewers’ questions&lt;/font&gt;" style="endArrow=block;endSize=16;endFill=0;html=1;rounded=0;exitX=1;exitY=1;exitDx=0;exitDy=0;exitPerimeter=0;entryX=1;entryY=0.5;entryDx=0;entryDy=0;" parent="1" source="c59BaYO8aNtHzQ45Rcc6-16" target="c59BaYO8aNtHzQ45Rcc6-103" edge="1">
          <mxGeometry width="160" relative="1" as="geometry">
            <mxPoint x="500" y="600" as="sourcePoint" />
            <mxPoint x="660" y="600" as="targetPoint" />
          </mxGeometry>
        </mxCell>
        <mxCell id="c59BaYO8aNtHzQ45Rcc6-131" value="view all editors" style="ellipse;whiteSpace=wrap;html=1;" parent="1" vertex="1">
          <mxGeometry x="210" y="300" width="100" height="50" as="geometry" />
        </mxCell>
        <mxCell id="c59BaYO8aNtHzQ45Rcc6-132" value="&lt;font style=&quot;font-size: 9px;&quot;&gt;search by editor name&lt;/font&gt;" style="ellipse;whiteSpace=wrap;html=1;" parent="1" vertex="1">
          <mxGeometry x="340" y="270" width="70" height="40" as="geometry" />
        </mxCell>
        <mxCell id="c59BaYO8aNtHzQ45Rcc6-133" value="&lt;font style=&quot;font-size: 7px;&quot;&gt;extend&lt;/font&gt;" style="endArrow=open;endSize=12;dashed=1;html=1;rounded=0;exitX=-0.005;exitY=0.654;exitDx=0;exitDy=0;exitPerimeter=0;entryX=0.673;entryY=0.03;entryDx=0;entryDy=0;entryPerimeter=0;" parent="1" source="c59BaYO8aNtHzQ45Rcc6-132" target="c59BaYO8aNtHzQ45Rcc6-131" edge="1">
          <mxGeometry width="160" relative="1" as="geometry">
            <mxPoint x="470" y="360" as="sourcePoint" />
            <mxPoint x="630" y="360" as="targetPoint" />
          </mxGeometry>
        </mxCell>
        <mxCell id="c59BaYO8aNtHzQ45Rcc6-137" value="&lt;font style=&quot;font-size: 7px;&quot;&gt;cheak data&lt;/font&gt;" style="ellipse;whiteSpace=wrap;html=1;" parent="1" vertex="1">
          <mxGeometry x="310" y="410" width="55" height="30" as="geometry" />
        </mxCell>
        <mxCell id="c59BaYO8aNtHzQ45Rcc6-138" value="&lt;font style=&quot;font-size: 7px;&quot;&gt;include&lt;/font&gt;" style="endArrow=open;endSize=12;dashed=1;html=1;rounded=0;exitX=0.964;exitY=0.687;exitDx=0;exitDy=0;exitPerimeter=0;entryX=0.327;entryY=1.039;entryDx=0;entryDy=0;entryPerimeter=0;" parent="1" source="c59BaYO8aNtHzQ45Rcc6-90" target="c59BaYO8aNtHzQ45Rcc6-137" edge="1">
          <mxGeometry width="160" relative="1" as="geometry">
            <mxPoint x="470" y="530" as="sourcePoint" />
            <mxPoint x="630" y="530" as="targetPoint" />
          </mxGeometry>
        </mxCell>
        <mxCell id="c59BaYO8aNtHzQ45Rcc6-139" value="SignUp" style="ellipse;whiteSpace=wrap;html=1;" parent="1" vertex="1">
          <mxGeometry x="210.63" y="370" width="79.37" height="40" as="geometry" />
        </mxCell>
        <mxCell id="c59BaYO8aNtHzQ45Rcc6-140" value="&lt;font style=&quot;font-size: 9px;&quot;&gt;check for account&lt;/font&gt;" style="ellipse;whiteSpace=wrap;html=1;" parent="1" vertex="1">
          <mxGeometry x="345" y="320" width="60" height="32.5" as="geometry" />
        </mxCell>
        <mxCell id="c59BaYO8aNtHzQ45Rcc6-151" value="&lt;font style=&quot;font-size: 7px;&quot;&gt;include&lt;/font&gt;" style="endArrow=open;endSize=12;dashed=1;html=1;rounded=0;exitX=1.076;exitY=0.454;exitDx=0;exitDy=0;entryX=0;entryY=1;entryDx=0;entryDy=0;exitPerimeter=0;" parent="1" source="c59BaYO8aNtHzQ45Rcc6-139" target="c59BaYO8aNtHzQ45Rcc6-140" edge="1">
          <mxGeometry width="160" relative="1" as="geometry">
            <mxPoint x="380" y="352.5" as="sourcePoint" />
            <mxPoint x="558" y="417.5" as="targetPoint" />
          </mxGeometry>
        </mxCell>
        <mxCell id="pS7hGgT0cdNlaM9hnxwt-1" value="view users list" style="ellipse;whiteSpace=wrap;html=1;" parent="1" vertex="1">
          <mxGeometry x="598.75" y="345" width="87.5" height="45" as="geometry" />
        </mxCell>
        <mxCell id="pS7hGgT0cdNlaM9hnxwt-2" value="delete user" style="ellipse;whiteSpace=wrap;html=1;" parent="1" vertex="1">
          <mxGeometry x="472.5" y="370" width="87.5" height="40" as="geometry" />
        </mxCell>
        <mxCell id="pS7hGgT0cdNlaM9hnxwt-6" style="edgeStyle=orthogonalEdgeStyle;rounded=0;orthogonalLoop=1;jettySize=auto;html=1;exitX=0;exitY=0.5;exitDx=0;exitDy=0;entryX=1;entryY=0.5;entryDx=0;entryDy=0;" parent="1" source="pS7hGgT0cdNlaM9hnxwt-4" target="c59BaYO8aNtHzQ45Rcc6-139" edge="1">
          <mxGeometry relative="1" as="geometry" />
        </mxCell>
        <mxCell id="pS7hGgT0cdNlaM9hnxwt-4" value="add user" style="ellipse;whiteSpace=wrap;html=1;" parent="1" vertex="1">
          <mxGeometry x="598.75" y="270" width="87.5" height="40" as="geometry" />
        </mxCell>
        <mxCell id="pS7hGgT0cdNlaM9hnxwt-10" value="extend" style="endArrow=open;endSize=12;dashed=1;html=1;rounded=0;exitX=1.005;exitY=0.675;exitDx=0;exitDy=0;entryX=0;entryY=0.5;entryDx=0;entryDy=0;exitPerimeter=0;" parent="1" source="pS7hGgT0cdNlaM9hnxwt-2" edge="1">
          <mxGeometry width="160" relative="1" as="geometry">
            <mxPoint x="600" y="310" as="sourcePoint" />
            <mxPoint x="609" y="373" as="targetPoint" />
          </mxGeometry>
        </mxCell>
        <mxCell id="FYBIkS828fc85QLFNB7--1" value="add post" style="ellipse;whiteSpace=wrap;html=1;" vertex="1" parent="1">
          <mxGeometry x="580" y="530" width="90" height="40" as="geometry" />
        </mxCell>
        <mxCell id="FYBIkS828fc85QLFNB7--2" value="delete post" style="ellipse;whiteSpace=wrap;html=1;" vertex="1" parent="1">
          <mxGeometry x="580" y="580" width="90" height="40" as="geometry" />
        </mxCell>
        <mxCell id="FYBIkS828fc85QLFNB7--3" value="edit post" style="ellipse;whiteSpace=wrap;html=1;" vertex="1" parent="1">
          <mxGeometry x="585" y="630" width="90" height="40" as="geometry" />
        </mxCell>
        <mxCell id="FYBIkS828fc85QLFNB7--8" value="Search by(date, editor name)" style="ellipse;whiteSpace=wrap;html=1;" vertex="1" parent="1">
          <mxGeometry x="250" y="590" width="100" height="40" as="geometry" />
        </mxCell>
        <mxCell id="FYBIkS828fc85QLFNB7--9" value="extend" style="endArrow=open;endSize=12;dashed=1;html=1;rounded=0;exitX=1;exitY=0.5;exitDx=0;exitDy=0;entryX=0;entryY=0.5;entryDx=0;entryDy=0;" edge="1" parent="1" source="FYBIkS828fc85QLFNB7--8" target="c59BaYO8aNtHzQ45Rcc6-94">
          <mxGeometry width="160" relative="1" as="geometry">
            <mxPoint x="350" y="520" as="sourcePoint" />
            <mxPoint x="510" y="520" as="targetPoint" />
          </mxGeometry>
        </mxCell>
        <mxCell id="FYBIkS828fc85QLFNB7--11" style="edgeStyle=orthogonalEdgeStyle;rounded=0;orthogonalLoop=1;jettySize=auto;html=1;exitX=0;exitY=1;exitDx=0;exitDy=0;exitPerimeter=0;entryX=0.406;entryY=1.005;entryDx=0;entryDy=0;entryPerimeter=0;" edge="1" parent="1" source="c59BaYO8aNtHzQ45Rcc6-6" target="c59BaYO8aNtHzQ45Rcc6-99">
          <mxGeometry relative="1" as="geometry" />
        </mxCell>
        <mxCell id="FYBIkS828fc85QLFNB7--17" value="include" style="endArrow=open;endSize=12;dashed=1;html=1;rounded=0;entryX=0.284;entryY=1.064;entryDx=0;entryDy=0;entryPerimeter=0;exitX=0.351;exitY=-0.05;exitDx=0;exitDy=0;exitPerimeter=0;" edge="1" parent="1" source="FYBIkS828fc85QLFNB7--1" target="c59BaYO8aNtHzQ45Rcc6-82">
          <mxGeometry width="160" relative="1" as="geometry">
            <mxPoint x="350" y="520" as="sourcePoint" />
            <mxPoint x="510" y="520" as="targetPoint" />
          </mxGeometry>
        </mxCell>
      </root>
    </mxGraphModel>
  </diagram>
</mxfile>
